<?xml version="1.0" encoding="utf-8"?>
<!-- Designed by Vexels.com - 2016 All Rights Reserved - https://vexels.com/terms-and-conditions/  -->

<svg version="1.1" id="Layer_1" xmlns="http://www.w3.org/2000/svg" xmlns:xlink="http://www.w3.org/1999/xlink" x="0px" y="0px"
	 width="1200px" height="1200px" viewBox="0 0 1200 1200" enable-background="new 0 0 1200 1200" xml:space="preserve">
<g>
	<path fill="#222232" d="M1019.585,1069.467c-5.132-16.59-43.484-12.591-52.627-14.302c-9.158-1.717-26.894-9.754-26.894-9.754
		c-12.034-22.864-33.776-13.149-33.776-13.149c-8.587-6.876-12.002-11.438-12.559-25.157c-0.596-13.759,5.132-77.267,5.132-94.421
		c0-17.179,0-60.106,2.859-66.405c2.871-6.274,2.857-10.849,2.857-10.849c16.039-36.064-6.28-50.937-14.859-60.086
		c-8.632-9.144-12.048-14.873-14.322-20.596c-2.301-5.735-9.138-21.185-9.138-21.185s-1.731-11.424-8.6-28.028
		c-6.843-16.577-18.897-15.443-33.18-32.052c-14.322-16.578-49.802-20.006-36.633-35.461c13.18-15.469,0-21.755-6.28-26.913
		c-6.317-5.146-7.459-7.414-7.459-16.585c0-9.15,0-52.077,2.857-64.079c2.865-12.027,5.723-52.083,5.192-69.82
		c-0.591-17.737,1.12-28.605,9.707-77.818c8.594-49.226-2.293-73.826-3.428-82.97c-1.147-9.15,13.142-18.91,13.142-18.91
		c19.481-7.414,22.345-11.982,29.194-25.157c6.844-13.155,18.302-29.181,22.306-36.024c4.017-6.889,21.729-38.345,29.188-47.522
		c7.453-9.151,8.01-15.462,14.886-26.888c6.876-11.444,8.58-18.301,6.28-32.603c-2.275-14.315-12.559-16.039-12.559-16.039
		c3.415-2.852,2.262-9.151,2.262-9.151c9.74-9.176-12.598-11.444-12.598-11.444c-18.846-3.992-19.429,13.175-19.429,13.175
		s3.435,1.711,0,1.711c-3.448,0-7.459,12.573-7.459,12.573c-12.586,3.453-4.005,15.455-4.005,15.455
		c-6.863,1.724-0.569,12.022-0.569,12.022c-2.852,4.568,9.734,24.042,9.734,24.042c-3.423,1.686-8.587,9.131-14.303,14.859
		c-5.742,5.736-28.61,24.6-48.642,34.904c-20.018,10.318-21.755,27.477-21.755,27.477l-4.555,1.704
		c-9.728-16.57-21.749-11.444-21.749-11.444c8.592-8.574,15.437-36.037,15.437-36.037c8.58-5.728,13.725-38.339,14.873-44.067
		c1.153-5.735,5.164-10.874,11.458-18.314c6.292-7.439-1.724-10.298-2.281-18.307c-0.557-8.016-1.147-10.874-3.448-14.302
		c-2.275-3.428-5.728-6.863-8.58-10.868c-2.877-4.004-6.863-8.574-9.72-11.451c-2.864-2.857-10.31-6.868-16.026-10.88
		c-5.729-3.986-13.155-1.14-16.014-1.691c-2.883-0.577-4.588-3.999-9.163-5.172c-4.568-1.127-15.462,0-21.749-1.127
		c-6.286-1.153-10.847,0.576-13.725,3.435c-2.859,2.864-4.576,6.868-7.998,9.15c-3.467,2.295-6.888,4.563-7.446,8.574
		c-0.557,4.012-4.005,6.292-8.612,9.163c-4.556,2.859-5.134,9.151-3.986,15.457c1.133,6.286,0,5.139-5.146,14.283
		c-5.127,9.176,1.153,24.625,1.153,24.625c-5.139,2.268-2.3,17.725-2.3,17.725c-3.423,14.322,10.278,24.613,10.278,24.613
		c6.312,18.307-3.416,30.315-3.416,30.315c-4.004,1.724-12.558,2.865-14.322,4.576c-1.717,1.729-5.151,6.888-9.13,8.606
		c-4.012,1.697,6.292,10.298-9.144,9.714c-15.495-0.569-37.217,18.878-46.931,28.054c-9.74,9.131-29.778,25.17-36.057,36.057
		c-6.267,10.849-11.458,33.757-14.879,38.876c-3.435,5.172-10.279,13.175-10.279,13.175s-0.556,6.876-2.857,10.291
		c-2.3,3.428-4.601,11.463-7.479,15.455c-2.831,4.005-5.132,5.723-7.432,9.151c-2.255,3.447-4.57,15.449-4.57,15.449
		s-6.299,13.182-9.156,14.886c-2.864,1.717-8.56,9.158-12.566,14.29c-4.004,5.159-8.592,8.023-16.622,15.475
		c-8.003,7.42-10.278,25.164-10.278,25.164c-9.176-5.159-16.021,6.306-16.021,6.306c-14.904,2.293-5.164,11.438-5.164,11.438
		s0,0-6.876,2.857c-6.836,2.877-0.557,16.59-0.557,16.59c-9.143,2.846,0.557,8.023,0.557,8.023s8.023,8.011,13.175,13.726
		c5.126,5.723,20.018,5.159,22.306,6.876c2.3,1.717,17.737,1.14,17.737,1.14c6.319-3.997-4.019-9.156-4.019-9.156
		c4.583-2.884-5.702-4.019-5.702-4.019c-10.304-2.28,0-8.567,0-8.567c25.176-2.871,9.72-10.88,21.761-16.583
		c12.015-5.741,26.304-29.758,28.63-34.353c2.275-4.562,1.122-7.426,7.998-11.438c6.836-4.011,22.293-24.606,22.293-24.606
		c6.279,1.704,16.039-2.857,16.039-2.857l18.301-25.753c9.72,1.704,1.717,62.374-1.737,71.531
		c-3.422,9.144-8.587,26.881-13.168,36.595c-4.568,9.734-2.857,16.033,6.883,13.752c9.74-2.275,4.575,7.439,4.575,7.439
		s-12.015,8.594-18.301,11.444c-6.312,2.846-16.033,23.466-22.313,32.04c-6.292,8.58-9.727,24.029-18.89,28.041
		c-9.144,4.011-16.046,26.92-24.613,40.639c-8.587,13.726-19.447,30.879-34.897,52.07c-15.43,21.172-38.921,71.526-38.921,71.526
		c-0.337-0.674-0.733-1.309-1.121-1.944c-16.35-26.182-58.629-27.846-68.68-29.551c-10.316-1.711-20.614,0.577-20.614-7.426
		c0-8.004-1.711-37.205-1.711-37.205c-6.843-15.993-25.734-10.854-25.734-10.854c-9.17-8.6-8.58,1.724-8.58,1.724
		s-6.888,3.979-14.879,9.13c-8.042,5.159-35.48,16.597-44.086,18.891c-8.574,2.3-24.004,6.306-24.004,6.306
		c-9.183-4.581-6.319,5.139-6.319,5.139c-10.284,3.435-22.313,32.623-22.313,32.623c-8.567,21.165,18.872,26.894,30.349,22.889
		c11.411-3.992,25.17-3.435,25.17-3.435c20.012,16.007,29.757,6.876,34.359,3.999c4.57-2.857,25.139,4.011,25.139,4.011
		c20.601,28.016,57.196,45.215,62.95,49.213c5.741,4.005,13.175,14.316,19.467,23.434c6.28,9.176,15.43,6.888,15.43,6.888
		c9.74,4.005,23.453,13.162,30.905,8.01c7.427-5.152,26.317-7.439,33.193-12.591c6.863-5.159,42.894-38.915,46.906-44.638
		c4.031-5.715,20.05-20.582,29.194-26.324c9.176-5.703,16.59,8.6,16.59,8.6c12.598,11.451,36.633-13.726,48.079-21.16
		c11.45-7.466,26.875-11.458,34.327-30.368c7.427-18.87,15.417-14.839,15.417-14.839s50.975,45.764,65.829,56.64
		c14.885,10.874,47.502,44.624,47.502,44.624c8.023,1.14,27.477-13.155,27.477-13.155l32.629,23.458
		c-5.741,3.435-7.479,14.873-10.914,30.887c-3.415,16.052-3.986,43.51,0.589,55.511c4.583,12.015,11.458,46.931,16.603,63.521
		c5.139,16.59,2.857,68.084,2.857,70.385c0,2.3-0.569,2.864-4.004,9.732c-3.422,6.87-3.999,36.615,6.286,48.643
		c10.284,12.008,41.754,2.857,41.754,2.857c8.023-4.017,54.398-1.14,54.398-1.14c13.713,2.858,52.614-5.735,52.614-5.735l13.751-6.3
		c9.728,5.723,9.728-4.581,9.728-4.581C1013.875,1092.369,1024.717,1086.037,1019.585,1069.467z"/>
	<path fill="#222232" d="M674.066,1000.592c-41.287,0-74.727,33.447-74.727,74.701c0,41.261,33.44,74.707,74.727,74.707
		c41.229,0,74.688-33.445,74.688-74.707C748.754,1034.039,715.295,1000.592,674.066,1000.592z"/>
</g>
</svg>
